# xmcd
#
# Track frame offsets:
#	150
#	16901
#	36730
#	52760
#	70394
#	84890
#	102895
#	120183
#	142394
#	170837
#	196686
#	214130
#	233610
#	255421
#	276117
#
# Disc length: 3943 seconds
#
# Revision: 1
# Processed by: cddbd v1.4PL0 Copyright (c) Steve Scherf et al.
# Submitted via: EasyCDDAExtractor 6.0.0.1
#
DISCID=cc0f650f
DTITLE=Lenny Kravitz - Greatest
DYEAR=2001
DGENRE=Rock/Soul
TTITLE0=Fly Away
TTITLE1=Again
TTITLE2=Are You Gonna Go My Way
TTITLE3=Mama Said
TTITLE4=Heaven Help
TTITLE5=It Ain't Over Til It's Over
TTITLE6=American Woman
TTITLE7=Believe
TTITLE8=I Built This Garden For Us
TTITLE9=Let Love Rule
TTITLE10=Mr. Cab Driver
TTITLE11=I Belong To You
TTITLE12=Black Velveteen
TTITLE13=Can't Get You Off Of My Mind
TTITLE14=Again
EXTD=
EXTT0=
EXTT1=
EXTT2=
EXTT3=
EXTT4=
EXTT5=
EXTT6=
EXTT7=
EXTT8=
EXTT9=
EXTT10=
EXTT11=
EXTT12=
EXTT13=
EXTT14=
PLAYORDER=
